<?xml version="1.0" encoding="UTF-8"?>
<svg xmlns="http://www.w3.org/2000/svg" viewBox="0 0 256 256" role="img" aria-label="Matterhorn Work">
  <title>Matterhorn Work</title>
  <rect width="256" height="256" fill="#D1F2FF"/>
  <path id="matterhorn-mark" fill="#0C0C0C" d="M47.5278 142.245C55.0727 132.434 58.5819 116.854 58.5819 93.2006H98.2002V52.857C98.4331 52.8414 98.661 52.8311 98.8939 52.8155C111.229 52.0476 123.179 51.0359 135.388 53.9362C147.389 56.7845 158.458 62.8599 167.021 71.986C177.158 82.793 183.539 96.1838 189.706 109.134C196.117 122.592 202.173 135.303 211.774 144.258C225.451 157.016 242.45 157.965 256 155.329V199.995C225.957 199.995 202.573 191.803 184.506 174.951C169.168 160.647 160.742 142.95 153.303 127.339C148.103 116.418 144.133 108.63 139.986 103.276C139.565 102.737 138.715 103.037 138.715 103.727L153.612 179.247H98.2052V123.987C98.2052 123.168 97.0507 123.08 96.9191 123.884C94.0429 141.98 88.2804 156.331 79.348 167.942C71.0537 178.728 60.0554 186.9 46.672 192.228C33.5216 197.458 18.2546 200 0 200V158.494C23.5816 158.494 39.1271 153.182 47.5329 142.255L47.5278 142.245Z"/>
</svg>
